PathFileType	4	(X/Y/Z)	C:\Users\86182\Documents\cortex\Trimmed_M3_H15.trc
DataRate	CameraRate	NumFrames	NumMarkers	Units	OrigDataRate	OrigDataStartFrame	OrigNumFrames
100.00	100.00	       70	2	mm	100.00	361	       901
Frame#	Time	gripper			box			
		X1	Y1	Z1	X2	Y2	Z2	

361	3.600	268.26541	173.30449	284.02658	268.61069	170.93796	148.04160	
362	3.610	268.24985	173.31783	284.44556	268.60083	170.94768	148.46054	
363	3.620	268.22992	173.33072	284.86533	268.58820	170.95743	148.87903	
364	3.630	268.20410	173.34203	285.28580	268.57480	170.96701	149.29832	
365	3.640	268.17172	173.35042	285.70526	268.56195	170.97549	149.71671	
366	3.650	268.13379	173.35541	286.12173	268.54803	170.98125	150.13165	
367	3.660	268.09299	173.35786	286.53424	268.53119	170.98326	150.54181	
368	3.670	268.05344	173.35867	286.94342	268.51300	170.98207	150.94684	
369	3.680	268.01901	173.35782	287.35022	268.49762	170.97893	151.34718	
370	3.690	267.99115	173.35500	287.75327	268.48734	170.97456	151.74432	
371	3.700	267.97034	173.34993	288.14981	268.48111	170.96909	152.13824	
372	3.710	267.95795	173.34209	288.53815	268.47778	170.96249	152.52509	
373	3.720	267.95511	173.33156	288.91843	268.47873	170.95493	152.89925	
374	3.730	267.96078	173.31970	289.28946	268.48734	170.94679	153.25780	
375	3.740	267.97293	173.30804	289.64642	268.50589	170.93900	153.60207	
376	3.750	267.99042	173.29652	289.98315	268.53317	170.93272	153.93471	
377	3.760	268.01279	173.28340	290.29620	268.56396	170.92883	154.25533	
378	3.770	268.03857	173.26692	290.58502	268.59128	170.92693	154.55981	
379	3.780	268.06586	173.24756	290.85062	268.61044	170.92477	154.84276	
380	3.790	268.09409	173.22853	291.09543	268.62100	170.91954	155.09923	
381	3.800	268.12396	173.21454	291.32291	268.62558	170.91002	155.32565	
382	3.810	268.15564	173.20996	291.53629	268.62811	170.89833	155.52060	
383	3.820	268.18753	173.21739	291.73737	268.63239	170.88959	155.68500	
384	3.830	268.21683	173.23671	291.92621	268.64130	170.89014	155.82228	
385	3.840	268.23969	173.26549	292.10034	268.65567	170.90524	155.93835	
386	3.850	268.25143	173.29987	292.25470	268.67395	170.93730	156.03935	
387	3.860	268.24826	173.33557	292.38422	268.69336	170.98438	156.12888	
388	3.870	268.22971	173.36876	292.48639	268.71167	171.03979	156.20721	
389	3.880	268.19855	173.39664	292.56219	268.72784	171.09447	156.27292	
390	3.890	268.15964	173.41757	292.61505	268.74142	171.14063	156.32523	
391	3.900	268.11877	173.43115	292.64923	268.75223	171.17403	156.36528	
392	3.910	268.08197	173.43793	292.66885	268.76019	171.19400	156.39563	
393	3.920	268.05408	173.43915	292.67761	268.76553	171.20259	156.41888	
394	3.930	268.03754	173.43631	292.67862	268.76889	171.20319	156.43680	
395	3.940	268.03207	173.43100	292.67480	268.77084	171.19940	156.45023	
396	3.950	268.03540	173.42471	292.66861	268.77148	171.19418	156.45955	
397	3.960	268.04440	173.41858	292.66205	268.77045	171.18956	156.46506	
398	3.970	268.05627	173.41333	292.65649	268.76791	171.18657	156.46736	
399	3.980	268.06903	173.40941	292.65268	268.76489	171.18553	156.46729	
400	3.990	268.08139	173.40712	292.65094	268.76294	171.18642	156.46548	
401	4.000	268.09259	173.40637	292.65112	268.76303	171.18861	156.46240	
402	4.010	268.10196	173.40668	292.65271	268.76456	171.19040	156.45804	
403	4.020	268.10873	173.40707	292.65466	268.76495	171.18896	156.45137	
404	4.030	268.11151	173.40619	292.65546	268.75992	171.18068	156.44028	
405	4.040	268.10815	173.40228	292.65280	268.74417	171.16162	156.42195	
406	4.050	268.09598	173.39331	292.64380	268.71274	171.12840	156.39348	
407	4.060	268.07269	173.37746	292.62463	268.66272	171.07932	156.35272	
408	4.070	268.03714	173.35353	292.59149	268.59485	171.01595	156.29942	
409	4.080	267.98938	173.32167	292.54166	268.51410	170.94391	156.23613	
410	4.090	267.93152	173.28410	292.47565	268.42847	170.87160	156.16829	
411	4.100	267.86902	173.24512	292.39847	268.34671	170.80737	156.10309	
412	4.110	267.80988	173.20969	292.31943	268.27643	170.75661	156.04713	
413	4.120	267.76175	173.18161	292.25009	268.22321	170.72093	156.00439	
414	4.130	267.72992	173.16229	292.20074	268.18985	170.69907	155.97580	
415	4.140	267.71655	173.15096	292.17719	268.17618	170.68834	155.95987	
416	4.150	267.72046	173.14577	292.17950	268.17957	170.68556	155.95387	
417	4.160	267.73746	173.14465	292.20233	268.19547	170.68774	155.95480	
418	4.170	267.76108	173.14561	292.23605	268.21786	170.69234	155.95973	
419	4.180	267.78418	173.14691	292.26959	268.24005	170.69740	155.96597	
420	4.190	267.80072	173.14731	292.29370	268.25620	170.70171	155.97133	
421	4.200	267.80722	173.14626	292.30286	268.26285	170.70464	155.97441	
422	4.210	267.80264	173.14388	292.29559	268.25912	170.70601	155.97485	
423	4.220	267.78851	173.14085	292.27432	268.24670	170.70599	155.97308	
424	4.230	267.76855	173.13820	292.24463	268.22903	170.70496	155.97015	
425	4.240	267.74802	173.13669	292.21445	268.21072	170.70343	155.96716	
426	4.250	267.73242	173.13643	292.19217	268.19629	170.70203	155.96498	
427	4.260	267.72589	173.13707	292.18390	268.18900	170.70125	155.96416	
428	4.270	267.73001	173.13824	292.19171	268.19034	170.70139	155.96483	
429	4.280	267.74332	173.13980	292.21292	268.19946	170.70241	155.96686	
430	4.290	267.76147	173.14157	292.24084	268.21356	170.70399	155.96971	
